<svg width="332" height="332" viewBox="0 0 332 332" fill="none" xmlns="http://www.w3.org/2000/svg">
<path d="M100.262 87.6077C100.262 87.6077 135.861 114.623 189.982 64.1092C238.046 19.2493 277.292 90.0283 277.566 123.923C277.922 167.83 229.502 202.963 253 231.801C276.498 260.64 206.4 308.263 168.62 267.049C121.624 215.78 108.892 257.436 82.1039 257.436C62.878 257.436 23.4054 209.664 50.0608 174.124C72.491 144.217 60.258 134.292 54.334 123.923C45.7885 108.97 66.0824 68.3819 100.262 87.6077Z" fill="#545454"/>
<path d="M243.185 147.306C245.098 148.017 247.189 148.064 249.179 147.608C257.515 145.694 286.177 140.628 281.196 162.839C280.111 167.246 263.325 191.924 287.231 200.933C288.983 201.601 290.835 201.966 292.71 202.012C300.07 202.163 314.656 200.425 320.761 194.211C328.135 186.705 320.078 190.264 320.078 190.264C320.078 190.264 292.043 202.499 282.14 189.519C281.038 188.075 280.337 185.977 280.136 184.171C279.787 181.041 281.177 176.903 283.004 173.302C285.475 168.427 297.341 146.5 271.578 140.113C265.644 138.699 257.024 137.43 245.909 142.109C239.426 144.839 240.862 146.443 243.185 147.306Z" fill="#CDCDCD"/>
<path d="M248.915 139.119L241.453 141.912C238.877 142.876 237.571 145.746 238.535 148.322L238.905 149.31C239.869 151.886 242.738 153.193 245.314 152.229L252.776 149.436C255.352 148.472 256.659 145.602 255.695 143.026L255.325 142.038C254.361 139.462 251.491 138.155 248.915 139.119Z" fill="#4BFFB3"/>
<path d="M203.113 147.201L178.504 156.411C177.216 156.893 176.563 158.328 177.045 159.616L177.142 159.875C177.624 161.163 179.058 161.816 180.346 161.334L204.956 152.124C206.244 151.642 206.897 150.207 206.415 148.919L206.318 148.66C205.836 147.372 204.401 146.719 203.113 147.201Z" fill="white"/>
<path d="M209.981 165.552L185.371 174.762C184.083 175.244 183.43 176.679 183.912 177.967L184.009 178.226C184.491 179.514 185.926 180.168 187.214 179.686L211.823 170.475C213.111 169.993 213.764 168.558 213.282 167.27L213.185 167.011C212.703 165.723 211.268 165.07 209.981 165.552Z" fill="white"/>
<path d="M232.703 134.677L212.758 142.142C210.182 143.106 208.875 145.975 209.839 148.551L216.649 166.746C217.613 169.322 220.483 170.629 223.059 169.665L243.004 162.2C245.58 161.236 246.887 158.366 245.923 155.79L239.113 137.595C238.149 135.019 235.279 133.713 232.703 134.677Z" fill="#5895F9"/>
<path d="M214.82 139.452L194.875 146.917C192.299 147.881 190.992 150.75 191.957 153.326L200.081 175.033C201.045 177.609 203.914 178.916 206.49 177.952L226.436 170.487C229.012 169.523 230.318 166.653 229.354 164.077L221.23 142.37C220.266 139.794 217.396 138.488 214.82 139.452Z" fill="#699CFF"/>
<path d="M217.938 135.046L217.781 135.104C216.064 135.747 215.193 137.66 215.836 139.377L227.217 169.787C227.859 171.504 229.773 172.375 231.49 171.733L231.646 171.674C233.364 171.031 234.235 169.118 233.592 167.401L222.211 136.991C221.568 135.274 219.655 134.403 217.938 135.046Z" fill="#4BFFB3"/>
<path d="M14.5639 154.488C14.5639 154.488 54.621 143.231 48.8054 169.166C47.7954 173.27 33.2573 194.4 50.5744 204.545C54.2928 206.724 58.5839 207.689 62.8931 207.666C70.6192 207.626 82.8676 206.139 88.37 200.538C95.7443 193.031 87.688 196.591 87.688 196.591C87.688 196.591 64.6826 206.054 52.8471 198.511C48.8058 195.935 46.974 190.948 48.0715 186.283C48.6324 183.966 49.4865 181.73 50.6133 179.629C53.1873 174.808 64.951 152.827 39.1878 146.439C33.253 145.026 24.6331 143.756 13.5186 148.436C2.40403 153.116 14.5639 154.488 14.5639 154.488Z" fill="#CDCDCD"/>
<path d="M93.7589 190.788L86.2969 193.581C83.721 194.545 82.4143 197.415 83.3784 199.991L83.7483 200.979C84.7123 203.555 87.582 204.862 90.1579 203.898L97.6199 201.105C100.196 200.141 101.502 197.271 100.538 194.695L100.168 193.707C99.2044 191.131 96.3347 189.824 93.7589 190.788Z" fill="#4BFFB3"/>
<path d="M106.364 178.511L95.3047 182.65C92.7288 183.614 91.4221 186.484 92.3862 189.06L97.7188 203.308C98.6829 205.884 101.553 207.191 104.128 206.227L115.188 202.088C117.763 201.124 119.07 198.254 118.106 195.678L112.773 181.43C111.809 178.854 108.94 177.547 106.364 178.511Z" fill="#5895F9"/>
<path d="M124.773 167.541L108.281 173.713C105.705 174.677 104.399 177.547 105.363 180.123L113.487 201.83C114.451 204.406 117.321 205.713 119.897 204.749L136.389 198.576C138.965 197.612 140.271 194.743 139.307 192.167L131.183 170.459C130.219 167.884 127.349 166.577 124.773 167.541Z" fill="#699CFF"/>
<path d="M128.266 163.044L128.109 163.103C126.392 163.746 125.521 165.659 126.164 167.376L137.545 197.785C138.188 199.503 140.101 200.374 141.818 199.731L141.974 199.673C143.692 199.03 144.563 197.117 143.92 195.4L132.539 164.99C131.896 163.273 129.983 162.402 128.266 163.044Z" fill="#4BFFB3"/>
<path d="M170.381 143.671C169.787 143.605 169.242 143.311 168.86 142.852C168.478 142.392 168.29 141.802 168.335 141.206L169.565 118.729C169.638 117.387 170.772 116.367 172.059 116.485L173.852 116.651C175.138 116.77 176.06 117.979 175.88 119.313L172.856 141.623C172.786 142.217 172.49 142.762 172.029 143.143C171.568 143.525 170.978 143.714 170.381 143.671Z" fill="#4BFFB3"/>
<path d="M159.759 145.61C159.574 145.664 159.38 145.682 159.189 145.661C158.997 145.641 158.812 145.583 158.643 145.49C158.474 145.398 158.325 145.273 158.204 145.123C158.083 144.974 157.993 144.801 157.939 144.617L153.544 130.635C153.417 130.237 153.452 129.805 153.642 129.434C153.833 129.062 154.163 128.781 154.56 128.652L155.698 128.309C155.893 128.252 156.098 128.236 156.3 128.262C156.501 128.288 156.695 128.356 156.869 128.461C157.044 128.566 157.194 128.706 157.311 128.872C157.429 129.038 157.51 129.227 157.551 129.426L160.808 143.751C160.899 144.136 160.841 144.541 160.647 144.886C160.452 145.23 160.135 145.489 159.759 145.61Z" fill="#4BFFB3"/>
<path d="M153.826 153.671C153.038 154.646 151.455 154.635 150.236 153.645L128.595 136.061C127.302 135.011 126.921 133.273 127.756 132.239L128.92 130.796C129.755 129.762 131.471 129.846 132.694 130.983L153.171 150.008C154.325 151.08 154.613 152.695 153.826 153.671Z" fill="#4BFFB3"/>
<path d="M163.827 199.088C164.385 199.303 164.837 199.726 165.088 200.268C165.34 200.81 165.372 201.429 165.176 201.994L158.246 223.41C157.832 224.689 156.476 225.385 155.262 224.943L153.57 224.325C152.357 223.881 151.774 222.476 152.289 221.234L160.911 200.436C161.13 199.879 161.555 199.427 162.099 199.176C162.642 198.925 163.261 198.893 163.827 199.088Z" fill="#4BFFB3"/>
<path d="M174.595 199.928C174.788 199.923 174.979 199.956 175.159 200.024C175.339 200.093 175.503 200.197 175.643 200.329C175.783 200.461 175.896 200.62 175.974 200.796C176.053 200.972 176.096 201.161 176.101 201.354L176.779 215.994C176.801 216.411 176.657 216.82 176.378 217.13C176.099 217.441 175.708 217.629 175.291 217.652L174.103 217.693C173.899 217.698 173.697 217.661 173.509 217.584C173.321 217.508 173.15 217.392 173.009 217.246C172.867 217.1 172.757 216.927 172.686 216.736C172.615 216.546 172.585 216.342 172.596 216.139L173.106 201.458C173.117 201.062 173.276 200.686 173.552 200.402C173.828 200.119 174.2 199.95 174.595 199.928Z" fill="#4BFFB3"/>
<path d="M182.387 193.646C183.397 192.904 184.925 193.32 185.851 194.589L202.284 217.115C203.266 218.461 203.191 220.238 202.118 221.025L200.624 222.122C199.552 222.909 197.915 222.389 197.023 220.978L182.083 197.354C181.243 196.024 181.376 194.388 182.387 193.646Z" fill="#4BFFB3"/>
</svg>
