<svg width="53" height="53" viewBox="0 0 53 53" fill="none" xmlns="http://www.w3.org/2000/svg">
<g id="albums">
<path id="Vector" d="M16 12H37C37.3978 12 37.7794 11.842 38.0607 11.5607C38.342 11.2794 38.5 10.8978 38.5 10.5C38.5 10.1022 38.342 9.72064 38.0607 9.43934C37.7794 9.15804 37.3978 9 37 9H16C15.6022 9 15.2206 9.15804 14.9393 9.43934C14.658 9.72064 14.5 10.1022 14.5 10.5C14.5 10.8978 14.658 11.2794 14.9393 11.5607C15.2206 11.842 15.6022 12 16 12ZM13 16.5H40C40.3978 16.5 40.7794 16.342 41.0607 16.0607C41.342 15.7794 41.5 15.3978 41.5 15C41.5 14.6022 41.342 14.2206 41.0607 13.9393C40.7794 13.658 40.3978 13.5 40 13.5H13C12.6022 13.5 12.2206 13.658 11.9393 13.9393C11.658 14.2206 11.5 14.6022 11.5 15C11.5 15.3978 11.658 15.7794 11.9393 16.0607C12.2206 16.342 12.6022 16.5 13 16.5ZM11.2066 45H41.7934C42.9087 44.9988 43.9779 44.5552 44.7666 43.7666C45.5552 42.9779 45.9988 41.9087 46 40.7934V22.2066C45.9988 21.0913 45.5552 20.0221 44.7666 19.2334C43.9779 18.4448 42.9087 18.0012 41.7934 18H11.2066C10.0913 18.0012 9.02206 18.4448 8.23344 19.2334C7.44483 20.0221 7.00124 21.0913 7 22.2066V40.7934C7.00124 41.9087 7.44483 42.9779 8.23344 43.7666C9.02206 44.5552 10.0913 44.9988 11.2066 45Z" fill="#888888"/>
</g>
</svg>
