<svg width="55" height="61" viewBox="0 0 55 61" fill="none" xmlns="http://www.w3.org/2000/svg">
<g id="IconoNotificaci&#195;&#179;n">
<path id="Vector" d="M27.25 48.8892C28.4026 48.8907 29.527 48.533 30.4669 47.8659C31.4068 47.1988 32.1156 46.2555 32.4946 45.167H22.0054C22.3844 46.2555 23.0932 47.1988 24.0331 47.8659C24.973 48.533 26.0974 48.8907 27.25 48.8892ZM40.2778 35.0909V26.5559C40.2778 20.5687 36.2113 15.5251 30.7024 14.0083C30.1571 12.6348 28.8245 11.667 27.25 11.667C25.6755 11.667 24.3429 12.6348 23.7976 14.0083C18.2888 15.5269 14.2222 20.5687 14.2222 26.5559V35.0909L11.0453 38.2678C10.8721 38.4404 10.7348 38.6455 10.6412 38.8713C10.5476 39.0971 10.4996 39.3392 10.5 39.5837V41.4448C10.5 41.9384 10.6961 42.4117 11.0451 42.7608C11.3941 43.1098 11.8675 43.3059 12.3611 43.3059H42.1389C42.6325 43.3059 43.1059 43.1098 43.4549 42.7608C43.8039 42.4117 44 41.9384 44 41.4448V39.5837C44.0004 39.3392 43.9524 39.0971 43.8588 38.8713C43.7652 38.6455 43.6279 38.4404 43.4547 38.2678L40.2778 35.0909Z" fill="#4BFFB3"/>
</g>
</svg>
