<svg width="53" height="53" viewBox="0 0 53 53" fill="none" xmlns="http://www.w3.org/2000/svg">
<g id="Frame">
<path id="Vector" d="M6 16.25C6 14.8908 6.53995 13.5872 7.50108 12.6261C8.4622 11.665 9.76577 11.125 11.125 11.125H41.875C43.2342 11.125 44.5378 11.665 45.4989 12.6261C46.46 13.5872 47 14.8908 47 16.25V29.0625H6V16.25ZM35.4688 18.8125C35.1289 18.8125 34.803 18.9475 34.5628 19.1878C34.3225 19.4281 34.1875 19.7539 34.1875 20.0938V22.6562C34.1875 22.9961 34.3225 23.3219 34.5628 23.5622C34.803 23.8025 35.1289 23.9375 35.4688 23.9375H40.5938C40.9336 23.9375 41.2594 23.8025 41.4997 23.5622C41.74 23.3219 41.875 22.9961 41.875 22.6562V20.0938C41.875 19.7539 41.74 19.4281 41.4997 19.1878C41.2594 18.9475 40.9336 18.8125 40.5938 18.8125H35.4688ZM6 34.1875V36.75C6 38.1092 6.53995 39.4128 7.50108 40.3739C8.4622 41.335 9.76577 41.875 11.125 41.875H41.875C43.2342 41.875 44.5378 41.335 45.4989 40.3739C46.46 39.4128 47 38.1092 47 36.75V34.1875H6Z" fill="#808080"/>
</g>
</svg>
