<svg width="80" height="80" viewBox="0 0 80 80" fill="none" xmlns="http://www.w3.org/2000/svg">
<rect width="80" height="80" rx="40" fill="#2E2E2E"/>
<path d="M49.8438 33.1274V32.7812C49.8438 30.3827 48.067 28.2613 44.8382 26.8094C42.1115 25.5822 38.5234 24.9062 34.75 24.9062C30.9766 24.9062 27.3885 25.5822 24.6618 26.8094C21.433 28.2613 19.6562 30.3827 19.6562 32.7812V39.3438C19.6562 41.7423 21.433 43.8637 24.6618 45.3156C26.4164 46.0749 28.264 46.5979 30.1562 46.8709V47.2188C30.1562 49.6173 31.933 51.7387 35.1618 53.1906C37.8885 54.4178 41.4766 55.0938 45.25 55.0938C49.0234 55.0938 52.6115 54.4178 55.3382 53.1906C58.567 51.7387 60.3438 49.6173 60.3438 47.2188V40.6562C60.3438 37.0239 56.1946 34.1069 49.8438 33.1274ZM56.4062 40.6562C56.4062 41.9277 52.8346 44.3444 46.2655 44.5741C48.5854 43.1828 49.8438 41.3617 49.8438 39.3438V37.1191C54.0897 37.8918 56.4062 39.5866 56.4062 40.6562ZM36.6154 43.2205C36.0198 43.2599 35.398 43.2812 34.75 43.2812C33.9166 43.2812 33.1274 43.2452 32.3826 43.1812C32.3205 43.173 32.2581 43.1681 32.1955 43.1664C31.9478 43.1434 31.7034 43.1172 31.4688 43.0877V40.4807C32.5586 40.5978 33.6539 40.6564 34.75 40.6562C35.8461 40.6564 36.9414 40.5978 38.0312 40.4807V43.0877C37.6227 43.1369 37.1995 43.1795 36.7598 43.2107C36.7188 43.2123 36.663 43.2156 36.6154 43.2205ZM45.9062 38.2183V39.3438C45.9062 40.128 44.5478 41.347 41.9688 42.2214V39.7605C42.9507 39.5028 43.9102 39.1664 44.8382 38.7548C45.2145 38.5852 45.5705 38.4064 45.9062 38.2183ZM34.75 28.8438C41.9688 28.8438 45.9062 31.4441 45.9062 32.7812C45.9062 34.1184 41.9688 36.7188 34.75 36.7188C27.5312 36.7188 23.5938 34.1184 23.5938 32.7812C23.5938 31.4441 27.5312 28.8438 34.75 28.8438ZM23.5938 39.3438V38.2183C23.9306 38.4053 24.2866 38.5836 24.6618 38.7531C25.5898 39.1648 26.5493 39.5011 27.5312 39.7588V42.2198C24.9522 41.347 23.5938 40.128 23.5938 39.3438ZM34.0938 47.2188C34.312 47.2188 34.5302 47.2188 34.75 47.2188C35.345 47.2188 35.934 47.2012 36.517 47.1662C37.0037 47.338 37.5084 47.4944 38.0312 47.6355V50.0964C35.4522 49.222 34.0938 48.003 34.0938 47.2188ZM41.9688 50.9627V48.3573C43.0586 48.4741 44.1539 48.5321 45.25 48.5312C46.3461 48.5314 47.4414 48.4728 48.5312 48.3557V50.9627C46.3514 51.2208 44.1486 51.2208 41.9688 50.9627ZM52.4688 50.0964V47.6355C53.4507 47.3778 54.4103 47.0414 55.3382 46.6298C55.7145 46.4613 56.0705 46.283 56.4062 46.0949V47.2188C56.4062 48.003 55.0478 49.222 52.4688 50.0964Z" fill="#4BFFB3"/>
</svg>
