<svg width="71" height="71" viewBox="0 0 71 71" fill="none" xmlns="http://www.w3.org/2000/svg">
<rect width="70.0333" height="70.0333" rx="35.0167" fill="#2E2E2E"/>
<path d="M19.5682 33.1565V44.1528C19.5682 45.8857 20.9771 47.2946 22.71 47.2946H43.1318C44.8647 47.2946 46.2736 45.8857 46.2736 44.1528V33.1565C46.2736 31.4236 44.8647 30.0146 43.1318 30.0146H22.71C20.9771 30.0146 19.5682 31.4236 19.5682 33.1565ZM22.71 41.011C24.4429 41.011 25.8518 42.4199 25.8518 44.1528H22.71V41.011ZM25.8518 33.1565C25.8518 34.8894 24.4429 36.2983 22.71 36.2983V33.1565H25.8518ZM43.1318 41.011V44.1528H39.99C39.99 42.4199 41.3989 41.011 43.1318 41.011ZM39.99 33.1565H43.1318V36.2983C41.3989 36.2983 39.99 34.8894 39.99 33.1565ZM28.9936 38.6546C28.9936 37.6131 29.4074 36.6141 30.1439 35.8776C30.8804 35.1411 31.8793 34.7274 32.9209 34.7274C33.9625 34.7274 34.9614 35.1411 35.6979 35.8776C36.4344 36.6141 36.8481 37.6131 36.8481 38.6546C36.8481 39.6962 36.4344 40.6951 35.6979 41.4316C34.9614 42.1681 33.9625 42.5819 32.9209 42.5819C31.8793 42.5819 30.8804 42.1681 30.1439 41.4316C29.4074 40.6951 28.9936 39.6962 28.9936 38.6546ZM17.2118 34.3346C17.2118 33.6817 16.6866 33.1565 16.0336 33.1565C15.3807 33.1565 14.8555 33.6817 14.8555 34.3346V46.1164C14.8555 49.3712 17.4916 52.0073 20.7464 52.0073H40.3827C41.0356 52.0073 41.5609 51.4821 41.5609 50.8291C41.5609 50.1762 41.0356 49.651 40.3827 49.651H20.7464C18.7926 49.651 17.2118 48.0702 17.2118 46.1164V34.3346Z" fill="#4BFFB3"/>
<path d="M40.1647 23.9053V27.3962M38.4193 25.6507H41.9102" stroke="#4BFFB3" stroke-width="0.872725" stroke-linecap="round" stroke-linejoin="round"/>
<path d="M47.1455 19.542V24.7783M44.5273 22.1602H49.7637" stroke="#4BFFB3" stroke-width="1.30909" stroke-linecap="round" stroke-linejoin="round"/>
<path d="M51.5091 26.5234V33.5052M48.0182 30.0143H55" stroke="#4BFFB3" stroke-width="1.30909" stroke-linecap="round" stroke-linejoin="round"/>
</svg>
