<svg width="71" height="71" viewBox="0 0 71 71" fill="none" xmlns="http://www.w3.org/2000/svg">
<rect y="0.945312" width="70.0333" height="70.0333" rx="35.0167" fill="#2E2E2E"/>
<g clip-path="url(#clip0_1057_81)">
<path d="M45.7103 25.2674C45.2427 24.7998 45.2427 24.0438 45.7103 23.5812C46.1778 23.1186 46.9339 23.1137 47.3965 23.5812L50.5798 26.7646C50.8036 26.9884 50.928 27.2918 50.928 27.6101C50.928 27.9285 50.8036 28.2319 50.5798 28.4557L47.3965 31.639C46.9289 32.1066 46.1729 32.1066 45.7103 31.639C45.2477 31.1715 45.2427 30.4154 45.7103 29.9529L46.8543 28.8089L38.1996 28.7989C37.5381 28.7989 37.0059 28.2667 37.0059 27.6052C37.0059 26.9436 37.5381 26.4114 38.1996 26.4114H46.8593L45.7103 25.2674ZM24.3223 41.9799L23.1783 43.1239H31.8329C32.4945 43.1239 33.0267 43.6561 33.0267 44.3177C33.0267 44.9792 32.4945 45.5114 31.8329 45.5114H23.1733L24.3173 46.6554C24.7848 47.123 24.7848 47.879 24.3173 48.3416C23.8497 48.8042 23.0937 48.8091 22.6311 48.3416L19.4478 45.1632C19.224 44.9394 19.0996 44.636 19.0996 44.3177C19.0996 43.9993 19.224 43.6959 19.4478 43.4721L22.6311 40.2887C23.0987 39.8212 23.8547 39.8212 24.3173 40.2887C24.7799 40.7563 24.7848 41.5123 24.3173 41.9749L24.3223 41.9799ZM23.8746 26.4114H35.9066C35.7226 26.7695 35.6132 27.1724 35.6132 27.6052C35.6132 29.0327 36.7721 30.1916 38.1996 30.1916H44.039C43.8401 31.0372 44.0689 31.9574 44.7254 32.6189C45.7352 33.6286 47.3716 33.6286 48.3813 32.6189L49.3413 31.6589V42.3281C49.3413 44.0839 47.9137 45.5114 46.1579 45.5114H34.1259C34.31 45.1533 34.4194 44.7504 34.4194 44.3177C34.4194 42.8901 33.2605 41.7312 31.8329 41.7312H25.9935C26.1925 40.8856 25.9637 39.9654 25.3071 39.3039C24.2974 38.2942 22.661 38.2942 21.6512 39.3039L20.6913 40.2639V29.5947C20.6913 27.8389 22.1188 26.4114 23.8746 26.4114ZM27.0579 29.5947H23.8746V32.7781C25.6304 32.7781 27.0579 31.3505 27.0579 29.5947ZM46.1579 39.1447C44.4021 39.1447 42.9746 40.5723 42.9746 42.3281H46.1579V39.1447ZM35.0163 40.7364C36.2827 40.7364 37.4972 40.2333 38.3927 39.3378C39.2882 38.4424 39.7913 37.2278 39.7913 35.9614C39.7913 34.695 39.2882 33.4805 38.3927 32.585C37.4972 31.6895 36.2827 31.1864 35.0163 31.1864C33.7499 31.1864 32.5353 31.6895 31.6398 32.585C30.7444 33.4805 30.2413 34.695 30.2413 35.9614C30.2413 37.2278 30.7444 38.4424 31.6398 39.3378C32.5353 40.2333 33.7499 40.7364 35.0163 40.7364Z" fill="#4B7DFF"/>
</g>
<defs>
<clipPath id="clip0_1057_81">
<rect width="31.8333" height="31.8333" fill="white" transform="translate(19.0996 20.0449)"/>
</clipPath>
</defs>
</svg>
