<svg width="94" height="94" viewBox="0 0 94 94" fill="none" xmlns="http://www.w3.org/2000/svg">
<rect width="94" height="94" rx="47" fill="#545454"/>
<path d="M61.4181 31.4746H31.3745C30.0469 31.476 28.7741 32.004 27.8354 32.9428C26.8966 33.8815 26.3686 35.1543 26.3672 36.4819V57.9416C26.3686 59.2692 26.8966 60.542 27.8354 61.4807C28.7741 62.4195 30.0469 62.9475 31.3745 62.9489H61.4181C62.7457 62.9475 64.0185 62.4195 64.9572 61.4807C65.8959 60.542 66.4239 59.2692 66.4254 57.9416V36.4819C66.4239 35.1543 65.8959 33.8815 64.9572 32.9428C64.0185 32.004 62.7457 31.476 61.4181 31.4746ZM60.1502 39.7572L47.2743 49.7717C47.0233 49.9669 46.7143 50.0729 46.3963 50.0729C46.0782 50.0729 45.7693 49.9669 45.5182 49.7717L32.6424 39.7572C32.4911 39.6429 32.364 39.4998 32.2686 39.336C32.1731 39.1722 32.1111 38.9911 32.0863 38.8032C32.0614 38.6152 32.0741 38.4242 32.1237 38.2413C32.1733 38.0583 32.2587 37.887 32.3751 37.7373C32.4915 37.5877 32.6364 37.4627 32.8015 37.3695C32.9666 37.2763 33.1486 37.2169 33.3368 37.1947C33.5251 37.1725 33.7159 37.1879 33.8982 37.2401C34.0804 37.2922 34.2505 37.3801 34.3985 37.4985L46.3963 46.8299L58.394 37.4985C58.6941 37.272 59.0712 37.1726 59.4439 37.2219C59.8166 37.2712 60.1549 37.4653 60.3856 37.7621C60.6164 38.0589 60.7211 38.4345 60.677 38.8079C60.6329 39.1813 60.4437 39.5223 60.1502 39.7572Z" fill="#4BFFB3"/>
<circle cx="69.5" cy="31.5" r="7.5" fill="#FF6B4B"/>
</svg>
