<svg width="28" height="28" viewBox="0 0 28 28" fill="none" xmlns="http://www.w3.org/2000/svg">
<g id="Icono isible" clip-path="url(#clip0_1057_63)">
<path id="Vector" d="M18.086 13.8067C18.086 14.9196 17.6439 15.987 16.8569 16.7739C16.07 17.5609 15.0026 18.003 13.8897 18.003C12.7767 18.003 11.7094 17.5609 10.9224 16.7739C10.1355 15.987 9.69336 14.9196 9.69336 13.8067C9.69336 12.6937 10.1355 11.6264 10.9224 10.8394C11.7094 10.0525 12.7767 9.61035 13.8897 9.61035C15.0026 9.61035 16.07 10.0525 16.8569 10.8394C17.6439 11.6264 18.086 12.6937 18.086 13.8067Z" fill="#808080"/>
<path id="Vector_2" d="M0.460938 13.8061C0.460938 13.8061 5.49652 4.57422 13.8892 4.57422C22.2818 4.57422 27.3174 13.8061 27.3174 13.8061C27.3174 13.8061 22.2818 23.038 13.8892 23.038C5.49652 23.038 0.460938 13.8061 0.460938 13.8061ZM13.8892 19.681C15.4473 19.681 16.9416 19.062 18.0433 17.9603C19.145 16.8585 19.764 15.3642 19.764 13.8061C19.764 12.248 19.145 10.7537 18.0433 9.65198C16.9416 8.55023 15.4473 7.93127 13.8892 7.93127C12.3311 7.93127 10.8368 8.55023 9.73501 9.65198C8.63327 10.7537 8.01431 12.248 8.01431 13.8061C8.01431 15.3642 8.63327 16.8585 9.73501 17.9603C10.8368 19.062 12.3311 19.681 13.8892 19.681Z" fill="#808080"/>
</g>
<defs>
<clipPath id="clip0_1057_63">
<rect width="26.8564" height="26.8564" fill="white" transform="translate(0.460938 0.37793)"/>
</clipPath>
</defs>
</svg>
