<svg width="53" height="53" viewBox="0 0 53 53" fill="none" xmlns="http://www.w3.org/2000/svg">
<g id="Iconoayuda">
<path id="Vector" d="M26.5 6.625C15.5273 6.625 6.625 15.5273 6.625 26.5C6.625 37.4727 15.5273 46.375 26.5 46.375C37.4727 46.375 46.375 37.4727 46.375 26.5C46.375 15.5273 37.4727 6.625 26.5 6.625ZM27.5807 37.8867H24.4535C24.3831 37.8864 24.3157 37.8583 24.266 37.8084C24.2164 37.7586 24.1885 37.6911 24.1885 37.6207V34.4945C24.1885 34.4241 24.2164 34.3566 24.266 34.3068C24.3157 34.2569 24.3831 34.2288 24.4535 34.2285H27.5807C27.6511 34.2288 27.7185 34.2569 27.7681 34.3068C27.8178 34.3566 27.8457 34.4241 27.8457 34.4945V37.6207C27.8457 37.6911 27.8178 37.7586 27.7681 37.8084C27.7185 37.8583 27.6511 37.8864 27.5807 37.8867ZM29.3405 27.6387C27.6625 28.7649 27.4316 29.797 27.4316 30.7441V31.8828C27.4316 31.9652 27.3989 32.0442 27.3407 32.1024C27.2824 32.1606 27.2035 32.1934 27.1211 32.1934H24.8438C24.7614 32.1934 24.6824 32.1606 24.6242 32.1024C24.5659 32.0442 24.5332 31.9652 24.5332 31.8828V30.7441C24.5332 28.4761 25.5766 26.6729 27.7236 25.2309C29.7193 23.8914 30.8477 23.0426 30.8477 21.1762C30.8477 19.9071 30.123 18.9434 28.6231 18.2301C28.2701 18.0624 27.4844 17.8989 26.5176 17.9103C25.3044 17.9258 24.3624 18.2156 23.6368 18.7995C22.2683 19.9009 22.1523 21.1006 22.1523 21.1172C22.0955 21.4691 22.0664 21.8249 22.0654 22.1813C22.0654 22.2637 22.0327 22.3427 21.9744 22.4009C21.9162 22.4592 21.8372 22.4919 21.7548 22.4919H19.5551C19.478 22.4923 19.4036 22.464 19.3462 22.4125C19.2888 22.3611 19.2526 22.2901 19.2446 22.2134C19.2073 21.8 19.2104 21.384 19.2539 20.9712C19.2767 20.7197 19.4402 18.4537 21.818 16.5408C23.0509 15.5491 24.6191 15.0336 26.4762 15.0108C27.7908 14.9953 29.0258 15.2178 29.8632 15.6133C32.3693 16.8047 33.7461 18.7808 33.7461 21.1762C33.7461 24.6781 31.4056 26.2505 29.3405 27.6387Z" fill="#808080"/>
</g>
</svg>
