<svg width="52" height="52" viewBox="0 0 52 52" fill="none" xmlns="http://www.w3.org/2000/svg">
<g id="Frame">
<path id="Vector" d="M28.1017 5.61181C27.5145 5.11404 26.7698 4.84082 26 4.84082C25.2302 4.84082 24.4855 5.11404 23.8983 5.61181L7.64833 19.3983C7.2885 19.7034 6.9994 20.0831 6.8011 20.5111C6.60279 20.9392 6.50005 21.4052 6.5 21.877V42.2501C6.5 43.1121 6.84241 43.9387 7.4519 44.5482C8.0614 45.1577 8.88805 45.5001 9.75 45.5001H20.0417C20.4726 45.5001 20.886 45.3289 21.1907 45.0242C21.4955 44.7194 21.6667 44.3061 21.6667 43.8751V30.3335H30.3333V43.8751C30.3333 44.7721 31.0613 45.5001 31.9583 45.5001H42.25C43.112 45.5001 43.9386 45.1577 44.5481 44.5482C45.1576 43.9387 45.5 43.1121 45.5 42.2501V21.877C45.5 21.4052 45.3972 20.9392 45.1989 20.5111C45.0006 20.0831 44.7115 19.7034 44.3517 19.3983L28.1017 5.61181Z" fill="#4BFFB3"/>
</g>
</svg>
