<svg width="46" height="46" viewBox="0 0 46 46" fill="none" xmlns="http://www.w3.org/2000/svg">
<g id="lock-closed">
<path id="Vector" d="M33.0625 17.25H31.625V10.0625C31.625 7.77501 30.7163 5.58121 29.0988 3.9637C27.4813 2.3462 25.2875 1.4375 23 1.4375C20.7125 1.4375 18.5187 2.3462 16.9012 3.9637C15.2837 5.58121 14.375 7.77501 14.375 10.0625V17.25H12.9375C11.413 17.2517 9.95145 17.858 8.87347 18.936C7.7955 20.0139 7.18916 21.4755 7.1875 23V38.8125C7.18916 40.337 7.7955 41.7986 8.87347 42.8765C9.95145 43.9545 11.413 44.5608 12.9375 44.5625H33.0625C34.587 44.5608 36.0486 43.9545 37.1265 42.8765C38.2045 41.7986 38.8108 40.337 38.8125 38.8125V23C38.8108 21.4755 38.2045 20.0139 37.1265 18.936C36.0486 17.858 34.587 17.2517 33.0625 17.25ZM28.75 17.25H17.25V10.0625C17.25 8.53751 17.8558 7.07497 18.9341 5.99664C20.0125 4.9183 21.475 4.3125 23 4.3125C24.525 4.3125 25.9875 4.9183 27.0659 5.99664C28.1442 7.07497 28.75 8.53751 28.75 10.0625V17.25Z" fill="#4BFFB3"/>
</g>
</svg>
