<svg width="53" height="53" viewBox="0 0 53 53" fill="none" xmlns="http://www.w3.org/2000/svg">
<g id="log-out">
<path id="Vector" d="M19.5937 27.2188C19.5937 26.7795 19.7682 26.3582 20.0789 26.0476C20.3895 25.737 20.8107 25.5625 21.25 25.5625H36.1562V14.7969C36.1562 11.4844 32.6585 9 29.5312 9H13.7969C12.26 9.00164 10.7864 9.61291 9.69968 10.6997C8.61291 11.7865 8.00164 13.26 8 14.7969V39.6406C8.00164 41.1775 8.61291 42.6511 9.69968 43.7378C10.7864 44.8246 12.26 45.4359 13.7969 45.4375H30.3594C31.8963 45.4359 33.3698 44.8246 34.4566 43.7378C35.5433 42.6511 36.1546 41.1775 36.1562 39.6406V28.875H21.25C20.8107 28.875 20.3895 28.7005 20.0789 28.3899C19.7682 28.0793 19.5937 27.658 19.5937 27.2188ZM50.577 26.048L42.2958 17.7667C41.9826 17.4692 41.5657 17.3058 41.1338 17.3114C40.7019 17.3169 40.2892 17.4909 39.9838 17.7963C39.6784 18.1018 39.5044 18.5144 39.4989 18.9463C39.4933 19.3782 39.6567 19.7951 39.9542 20.1083L45.4074 25.5625H36.1562V28.875H45.4074L39.9542 34.3292C39.794 34.4815 39.6658 34.6643 39.5773 34.8669C39.4888 35.0695 39.4417 35.2877 39.4389 35.5088C39.4361 35.7298 39.4775 35.9492 39.5608 36.154C39.6441 36.3588 39.7675 36.5448 39.9239 36.7011C40.0802 36.8575 40.2662 36.9809 40.471 37.0642C40.6758 37.1475 40.8952 37.1889 41.1162 37.1861C41.3373 37.1833 41.5555 37.1362 41.7581 37.0477C41.9607 36.9592 42.1435 36.831 42.2958 36.6708L50.577 28.3895C50.8874 28.0789 51.0617 27.6578 51.0617 27.2188C51.0617 26.7797 50.8874 26.3586 50.577 26.048Z" fill="#808080"/>
</g>
</svg>
