<svg width="284" height="99" viewBox="0 0 284 99" fill="none" xmlns="http://www.w3.org/2000/svg">
<circle cx="57.5214" cy="48.9169" r="22.9169" fill="url(#paint0_linear_1000_124)"/>
<path d="M25.0472 43.6088C28.6002 40.369 39.8712 27.84 57.2558 40.6628C73.8721 52.9188 84.6565 39.3119 90.0488 30.8023" stroke="#2E2E2E" stroke-width="7.46133"/>
<path d="M25.1312 61.7231C28.6842 58.4832 39.9552 45.9542 57.3398 58.777C73.9561 71.0331 84.7405 57.4262 90.1328 48.9166" stroke="#2E2E2E" stroke-width="7.46133"/>
<path d="M110.363 63V36.2234H121.954C124.351 36.2234 126.417 36.6187 128.151 37.4092C129.885 38.1743 131.224 39.2836 132.167 40.7372C133.111 42.1907 133.583 43.9248 133.583 45.9395C133.583 47.9286 133.111 49.6499 132.167 51.1035C131.224 52.5571 129.885 53.6792 128.151 54.4697C126.417 55.2348 124.351 55.6173 121.954 55.6173H113.806L116.56 52.8249V63H110.363ZM116.56 53.5134L113.806 50.568H121.61C123.522 50.568 124.95 50.16 125.894 49.3439C126.837 48.5279 127.309 47.3931 127.309 45.9395C127.309 44.4604 126.837 43.3128 125.894 42.4968C124.95 41.6807 123.522 41.2727 121.61 41.2727H113.806L116.56 38.3273V53.5134ZM150.022 63V58.9835L149.64 58.1037V50.9123C149.64 49.6372 149.245 48.6426 148.454 47.9286C147.689 47.2145 146.503 46.8575 144.897 46.8575C143.8 46.8575 142.716 47.036 141.645 47.3931C140.6 47.7246 139.707 48.1836 138.967 48.7701L136.825 44.6006C137.947 43.8101 139.299 43.1981 140.88 42.7645C142.461 42.331 144.068 42.1142 145.7 42.1142C148.837 42.1142 151.272 42.8538 153.006 44.3329C154.74 45.812 155.607 48.1199 155.607 51.2565V63H150.022ZM143.749 63.306C142.142 63.306 140.765 63.0383 139.618 62.5027C138.47 61.9417 137.59 61.1894 136.978 60.2458C136.366 59.3023 136.06 58.244 136.06 57.0709C136.06 55.8468 136.354 54.7758 136.94 53.8577C137.552 52.9396 138.508 52.2256 139.809 51.7156C141.11 51.18 142.805 50.9123 144.897 50.9123H150.367V54.3932H145.547C144.144 54.3932 143.175 54.6227 142.64 55.0818C142.13 55.5408 141.875 56.1146 141.875 56.8031C141.875 57.5682 142.168 58.1802 142.754 58.6392C143.366 59.0728 144.195 59.2895 145.241 59.2895C146.235 59.2895 147.128 59.06 147.919 58.601C148.709 58.1165 149.283 57.4152 149.64 56.4971L150.558 59.2513C150.124 60.5774 149.334 61.5847 148.186 62.2732C147.039 62.9617 145.56 63.306 143.749 63.306ZM163.236 70.727C162.165 70.727 161.106 70.5612 160.061 70.2297C159.015 69.8982 158.161 69.4391 157.498 68.8526L159.678 64.6066C160.137 65.0146 160.66 65.3334 161.246 65.5629C161.858 65.7924 162.458 65.9072 163.044 65.9072C163.886 65.9072 164.549 65.7032 165.033 65.2951C165.543 64.9126 166.002 64.2623 166.411 63.3443L167.482 60.8196L167.941 60.1693L175.323 42.4203H181.061L171.766 64.2623C171.103 65.9199 170.338 67.2205 169.471 68.1641C168.629 69.1076 167.686 69.7707 166.64 70.1532C165.62 70.5357 164.485 70.727 163.236 70.727ZM166.755 63.8033L157.574 42.4203H163.733L170.848 59.6338L166.755 63.8033ZM183.917 63V36.2234H189.043L204.841 55.5025H202.355V36.2234H208.475V63H203.387L187.551 43.7208H190.037V63H183.917ZM224.603 63.306C222.257 63.306 220.191 62.847 218.406 61.9289C216.646 61.0109 215.282 59.7613 214.313 58.1802C213.344 56.5736 212.859 54.7503 212.859 52.7101C212.859 50.6445 213.331 48.8211 214.275 47.24C215.244 45.6335 216.557 44.3839 218.215 43.4913C219.872 42.5733 221.747 42.1142 223.838 42.1142C225.852 42.1142 227.663 42.5478 229.27 43.4148C230.902 44.2564 232.189 45.4804 233.133 47.087C234.077 48.6681 234.548 50.568 234.548 52.7866C234.548 53.0161 234.536 53.2839 234.51 53.5899C234.485 53.8704 234.459 54.1382 234.434 54.3932H217.717V50.9123H231.297L229.002 51.9451C229.002 50.874 228.785 49.9432 228.351 49.1527C227.918 48.3621 227.319 47.7501 226.554 47.3166C225.789 46.8575 224.896 46.628 223.876 46.628C222.856 46.628 221.951 46.8575 221.16 47.3166C220.395 47.7501 219.796 48.3749 219.362 49.1909C218.929 49.9815 218.712 50.925 218.712 52.0216V52.9396C218.712 54.0617 218.954 55.0563 219.439 55.9233C219.949 56.7649 220.65 57.4152 221.543 57.8742C222.461 58.3077 223.532 58.5245 224.756 58.5245C225.852 58.5245 226.809 58.3587 227.625 58.0272C228.466 57.6957 229.231 57.1984 229.92 56.5354L233.095 59.9781C232.151 61.0491 230.965 61.8779 229.537 62.4645C228.109 63.0255 226.464 63.306 224.603 63.306ZM235.36 63L244.578 50.9123L244.464 54.202L235.627 42.4203H242.322L247.906 50.109L245.382 50.1855L251.158 42.4203H257.508L248.633 54.0872V50.874L257.814 63H251.043L245.191 54.814L247.677 55.1583L241.863 63H235.36Z" fill="#4BFFB3"/>
<defs>
<linearGradient id="paint0_linear_1000_124" x1="57.5214" y1="26" x2="57.5214" y2="71.8339" gradientUnits="userSpaceOnUse">
<stop stop-color="#4B7DFF"/>
<stop offset="1" stop-color="#4BFFB3"/>
</linearGradient>
</defs>
</svg>
