<svg width="35" height="28" viewBox="0 0 35 28" fill="none" xmlns="http://www.w3.org/2000/svg">
<g clip-path="url(#clip0_1470_837)">
<circle cx="10" cy="10" r="10" fill="#E33A24"/>
<circle cx="25" cy="10" r="10" fill="#F8CB2E" fill-opacity="0.8"/>
<path d="M11.47 23.515C11.85 23.515 12.1783 23.5867 12.455 23.73C12.735 23.87 12.9483 24.0717 13.095 24.335C13.245 24.5983 13.32 24.9083 13.32 25.265C13.32 25.6217 13.245 25.9317 13.095 26.195C12.9483 26.455 12.735 26.655 12.455 26.795C12.1783 26.9317 11.85 27 11.47 27H10.385V23.515H11.47ZM11.47 26.625C11.92 26.625 12.2633 26.5067 12.5 26.27C12.7367 26.03 12.855 25.695 12.855 25.265C12.855 24.8317 12.735 24.4933 12.495 24.25C12.2583 24.0067 11.9167 23.885 11.47 23.885H10.84V26.625H11.47ZM16.4202 25.525C16.4202 25.6117 16.4152 25.7033 16.4052 25.8H14.2152C14.2318 26.07 14.3235 26.2817 14.4902 26.435C14.6602 26.585 14.8652 26.66 15.1052 26.66C15.3018 26.66 15.4652 26.615 15.5952 26.525C15.7285 26.4317 15.8218 26.3083 15.8752 26.155H16.3652C16.2918 26.4183 16.1452 26.6333 15.9252 26.8C15.7052 26.9633 15.4318 27.045 15.1052 27.045C14.8452 27.045 14.6118 26.9867 14.4052 26.87C14.2018 26.7533 14.0418 26.5883 13.9252 26.375C13.8085 26.1583 13.7502 25.9083 13.7502 25.625C13.7502 25.3417 13.8068 25.0933 13.9202 24.88C14.0335 24.6667 14.1918 24.5033 14.3952 24.39C14.6018 24.2733 14.8385 24.215 15.1052 24.215C15.3652 24.215 15.5952 24.2717 15.7952 24.385C15.9952 24.4983 16.1485 24.655 16.2552 24.855C16.3652 25.0517 16.4202 25.275 16.4202 25.525ZM15.9502 25.43C15.9502 25.2567 15.9118 25.1083 15.8352 24.985C15.7585 24.8583 15.6535 24.7633 15.5202 24.7C15.3902 24.6333 15.2452 24.6 15.0852 24.6C14.8552 24.6 14.6585 24.6733 14.4952 24.82C14.3352 24.9667 14.2435 25.17 14.2202 25.43H15.9502ZM17.4757 24.77C17.5691 24.6067 17.7057 24.4733 17.8857 24.37C18.0657 24.2667 18.2707 24.215 18.5007 24.215C18.7474 24.215 18.9691 24.2733 19.1657 24.39C19.3624 24.5067 19.5174 24.6717 19.6307 24.885C19.7441 25.095 19.8007 25.34 19.8007 25.62C19.8007 25.8967 19.7441 26.1433 19.6307 26.36C19.5174 26.5767 19.3607 26.745 19.1607 26.865C18.9641 26.985 18.7441 27.045 18.5007 27.045C18.2641 27.045 18.0557 26.9933 17.8757 26.89C17.6991 26.7867 17.5657 26.655 17.4757 26.495V27H17.0207V23.3H17.4757V24.77ZM19.3357 25.62C19.3357 25.4133 19.2941 25.2333 19.2107 25.08C19.1274 24.9267 19.0141 24.81 18.8707 24.73C18.7307 24.65 18.5757 24.61 18.4057 24.61C18.2391 24.61 18.0841 24.6517 17.9407 24.735C17.8007 24.815 17.6874 24.9333 17.6007 25.09C17.5174 25.2433 17.4757 25.4217 17.4757 25.625C17.4757 25.8317 17.5174 26.0133 17.6007 26.17C17.6874 26.3233 17.8007 26.4417 17.9407 26.525C18.0841 26.605 18.2391 26.645 18.4057 26.645C18.5757 26.645 18.7307 26.605 18.8707 26.525C19.0141 26.4417 19.1274 26.3233 19.2107 26.17C19.2941 26.0133 19.3357 25.83 19.3357 25.62ZM20.6346 23.815C20.548 23.815 20.4746 23.785 20.4146 23.725C20.3546 23.665 20.3246 23.5917 20.3246 23.505C20.3246 23.4183 20.3546 23.345 20.4146 23.285C20.4746 23.225 20.548 23.195 20.6346 23.195C20.718 23.195 20.788 23.225 20.8446 23.285C20.9046 23.345 20.9346 23.4183 20.9346 23.505C20.9346 23.5917 20.9046 23.665 20.8446 23.725C20.788 23.785 20.718 23.815 20.6346 23.815ZM20.8546 24.26V27H20.3996V24.26H20.8546ZM22.1851 24.635V26.25C22.1851 26.3833 22.2135 26.4783 22.2701 26.535C22.3268 26.5883 22.4251 26.615 22.5651 26.615H22.9001V27H22.4901C22.2368 27 22.0468 26.9417 21.9201 26.825C21.7935 26.7083 21.7301 26.5167 21.7301 26.25V24.635H21.3751V24.26H21.7301V23.57H22.1851V24.26H22.9001V24.635H22.1851Z" fill="white"/>
</g>
<defs>
<clipPath id="clip0_1470_837">
<rect width="35" height="28" fill="white"/>
</clipPath>
</defs>
</svg>
