<svg width="80" height="80" viewBox="0 0 80 80" fill="none" xmlns="http://www.w3.org/2000/svg">
<rect width="80" height="80" rx="40" fill="#2E2E2E"/>
<path d="M57.3561 52.9255H21.9076C21.5159 52.9255 21.1402 52.7699 20.8632 52.4929C20.5862 52.2159 20.4306 51.8402 20.4306 51.4485C20.4306 51.0568 20.5862 50.6811 20.8632 50.4041C21.1402 50.1271 21.5159 49.9715 21.9076 49.9715H57.3561C57.7478 49.9715 58.1235 50.1271 58.4005 50.4041C58.6775 50.6811 58.8331 51.0568 58.8331 51.4485C58.8331 51.8402 58.6775 52.2159 58.4005 52.4929C58.1235 52.7699 57.7478 52.9255 57.3561 52.9255ZM54.4021 57.3566H24.8617C24.4699 57.3566 24.0942 57.201 23.8173 56.924C23.5403 56.647 23.3846 56.2713 23.3846 55.8796C23.3846 55.4878 23.5403 55.1122 23.8173 54.8352C24.0942 54.5582 24.4699 54.4026 24.8617 54.4026H54.4021C54.7938 54.4026 55.1695 54.5582 55.4465 54.8352C55.7235 55.1122 55.8791 55.4878 55.8791 55.8796C55.8791 56.2713 55.7235 56.647 55.4465 56.924C55.1695 57.201 54.7938 57.3566 54.4021 57.3566ZM18.9536 41.1094H17.4766V45.5404C17.4766 46.3239 17.7878 47.0753 18.3418 47.6293C18.8958 48.1832 19.6471 48.4945 20.4306 48.4945H24.8617V47.0175C24.86 45.4511 24.2369 43.9493 23.1293 42.8417C22.0217 41.7341 20.52 41.1111 18.9536 41.1094Z" fill="#4BFFB3"/>
<path d="M60.3102 38.1554H61.7872V32.2473H60.3102C57.9606 32.2447 55.708 31.3101 54.0467 29.6487C52.3853 27.9873 51.4507 25.7348 51.448 23.3852V21.9082H27.8157V23.3852C27.813 25.7348 26.8785 27.9873 25.2171 29.6487C23.5557 31.3101 21.3031 32.2447 18.9536 32.2473H17.4766V38.1554H18.9536C21.3031 38.1581 23.5557 39.0927 25.2171 40.754C26.8785 42.4154 27.813 44.668 27.8157 47.0175V48.4946H51.448V47.0175C51.4507 44.668 52.3853 42.4154 54.0467 40.754C55.708 39.0927 57.9606 38.1581 60.3102 38.1554ZM39.6319 44.0635C37.8791 44.0635 36.1657 43.5438 34.7083 42.57C33.251 41.5962 32.1151 40.2121 31.4443 38.5928C30.7736 36.9734 30.5981 35.1916 30.94 33.4725C31.282 31.7534 32.126 30.1743 33.3654 28.9349C34.6048 27.6955 36.1839 26.8515 37.903 26.5095C39.622 26.1676 41.4039 26.3431 43.0233 27.0139C44.6426 27.6846 46.0267 28.8205 47.0005 30.2779C47.9742 31.7352 48.494 33.4486 48.494 35.2014C48.4913 37.5509 47.5568 39.8035 45.8954 41.4649C44.234 43.1263 41.9814 44.0608 39.6319 44.0635Z" fill="#4BFFB3"/>
<path d="M39.6307 41.1091C42.8937 41.1091 45.5388 38.464 45.5388 35.201C45.5388 31.9381 42.8937 29.293 39.6307 29.293C36.3678 29.293 33.7227 31.9381 33.7227 35.201C33.7227 38.464 36.3678 41.1091 39.6307 41.1091Z" fill="#4BFFB3"/>
<path d="M54.4021 47.0175V48.4946H58.8331C59.6166 48.4946 60.368 48.1833 60.922 47.6293C61.4759 47.0754 61.7872 46.324 61.7872 45.5405V41.1095H60.3102C58.7438 41.1112 57.242 41.7342 56.1344 42.8418C55.0268 43.9494 54.4038 45.4512 54.4021 47.0175ZM60.3102 29.2933H61.7872V24.8622C61.7872 24.0788 61.4759 23.3274 60.922 22.7734C60.368 22.2194 59.6166 21.9082 58.8331 21.9082H54.4021V23.3852C54.4038 24.9516 55.0268 26.4534 56.1344 27.561C57.242 28.6686 58.7438 29.2916 60.3102 29.2933ZM24.8617 23.3852V21.9082H20.4306C19.6471 21.9082 18.8958 22.2194 18.3418 22.7734C17.7878 23.3274 17.4766 24.0788 17.4766 24.8622V29.2933H18.9536C20.52 29.2916 22.0217 28.6686 23.1293 27.561C24.2369 26.4534 24.86 24.9516 24.8617 23.3852Z" fill="#4BFFB3"/>
</svg>
