<svg width="80" height="80" viewBox="0 0 80 80" fill="none" xmlns="http://www.w3.org/2000/svg">
<rect width="80" height="80" rx="40" fill="#2E2E2E"/>
<path d="M59.2926 28.975C59.2728 28.6609 59.1481 28.3625 58.9385 28.1276C58.729 27.8927 58.4467 27.7349 58.1369 27.6795C50.5343 26.3154 47.3606 25.3293 40.2661 22.1248C40.084 22.0426 39.8866 22 39.6869 22C39.4871 22 39.2897 22.0426 39.1077 22.1248C32.0131 25.3293 28.8394 26.3154 21.2369 27.6795C20.927 27.7349 20.6447 27.8927 20.4352 28.1276C20.2256 28.3625 20.101 28.6609 20.0811 28.975C19.7427 34.346 20.4643 39.3505 22.2283 43.8496C23.6728 47.5195 25.8105 50.8768 28.5247 53.7382C33.2243 58.7242 38.2138 60.8899 39.1657 61.2731C39.5039 61.4099 39.8821 61.4099 40.2204 61.2731C41.1722 60.8899 46.1618 58.7242 50.8613 53.7382C53.5711 50.8758 55.7046 47.5185 57.1455 43.8496C58.9094 39.3505 59.631 34.346 59.2926 28.975ZM47.7789 35.5765L38.0407 46.8265C37.9154 46.9715 37.7619 47.0895 37.5894 47.1731C37.417 47.2567 37.2293 47.3041 37.0378 47.3125H36.9798C36.6118 47.3126 36.2584 47.1684 35.9954 46.9109L31.6712 42.6745C31.5393 42.5453 31.4341 42.3913 31.3617 42.2214C31.2893 42.0514 31.2511 41.8689 31.2492 41.6842C31.2454 41.3112 31.3899 40.952 31.651 40.6856C31.9121 40.4191 32.2683 40.2673 32.6413 40.2635C33.0143 40.2597 33.3735 40.4043 33.64 40.6653L36.8919 43.8549L45.6546 33.736C45.7755 33.5964 45.9226 33.4819 46.0877 33.3991C46.2528 33.3163 46.4326 33.2669 46.6168 33.2536C46.801 33.2403 46.986 33.2634 47.1613 33.3216C47.3366 33.3798 47.4987 33.4719 47.6383 33.5928C47.778 33.7136 47.8925 33.8608 47.9752 34.0259C48.058 34.191 48.1075 34.3708 48.1208 34.555C48.1341 34.7392 48.111 34.9242 48.0528 35.0995C47.9946 35.2747 47.9024 35.4368 47.7816 35.5765H47.7789Z" fill="#4BFFB3"/>
</svg>
