<svg width="52" height="52" viewBox="0 0 52 52" fill="none" xmlns="http://www.w3.org/2000/svg">
<g id="Iconomiperfil">
<path id="Vector" d="M26 6C14.9516 6 6 14.9516 6 26C6 37.0484 14.9516 46 26 46C37.0484 46 46 37.0484 46 26C46 14.9516 37.0484 6 26 6ZM26 13.7419C29.9194 13.7419 33.0968 16.9194 33.0968 20.8387C33.0968 24.7581 29.9194 27.9355 26 27.9355C22.0806 27.9355 18.9032 24.7581 18.9032 20.8387C18.9032 16.9194 22.0806 13.7419 26 13.7419ZM26 41.4839C21.2661 41.4839 17.0242 39.3387 14.1855 35.9839C15.7016 33.129 18.6694 31.1613 22.129 31.1613C22.3226 31.1613 22.5161 31.1935 22.7016 31.25C23.75 31.5887 24.8468 31.8064 26 31.8064C27.1532 31.8064 28.2581 31.5887 29.2984 31.25C29.4839 31.1935 29.6774 31.1613 29.871 31.1613C33.3306 31.1613 36.2984 33.129 37.8145 35.9839C34.9758 39.3387 30.7339 41.4839 26 41.4839Z" fill="#808080"/>
</g>
</svg>
