<svg width="268" height="179" viewBox="0 0 268 179" fill="none" xmlns="http://www.w3.org/2000/svg">
<g filter="url(#filter0_d_1390_347)">
<g clip-path="url(#clip0_1390_347)">
<rect width="253.823" height="105.916" rx="9.00285" transform="matrix(0.969231 0.246153 -0.00820296 0.999966 3.86914 1)" fill="#3D3D3D"/>
<path d="M23.3688 25.193L20.7218 24.5208L20.2228 25.7893L19.3869 25.577L21.6322 19.909L22.5464 20.1412L24.6808 26.9215L23.8449 26.7092L23.3688 25.193ZM23.1478 24.4708L22.0767 21.0301L20.9537 23.9135L23.1478 24.4708ZM27.4195 26.8609L28.9339 23.0686L29.7785 23.2831L27.8661 27.7305L26.9431 27.4961L25.1115 22.0979L25.9648 22.3146L27.4195 26.8609ZM30.2421 25.8494C30.2462 25.3463 30.3485 24.9312 30.549 24.604C30.7495 24.2709 31.0218 24.043 31.366 23.9204C31.716 23.7992 32.1029 23.7924 32.5266 23.9001C32.9446 24.0062 33.3066 24.1912 33.6127 24.4549C33.9188 24.7187 34.1462 25.0105 34.2948 25.3303L34.3022 24.432L35.1032 24.6354L35.0629 29.5582L34.2618 29.3548L34.2693 28.4385C34.1102 28.6861 33.8732 28.866 33.5582 28.978C33.249 29.0855 32.8883 29.087 32.4762 28.9823C32.0525 28.8747 31.6702 28.6696 31.3295 28.367C30.9888 28.0644 30.7214 27.6935 30.5272 27.2541C30.3331 26.8147 30.238 26.3464 30.2421 25.8494ZM34.2821 26.8844C34.2851 26.5131 34.2152 26.1713 34.0724 25.8589C33.9295 25.5466 33.7339 25.2869 33.4854 25.0798C33.2429 24.8681 32.9736 24.7247 32.6775 24.6495C32.3815 24.5743 32.111 24.5777 31.866 24.6595C31.621 24.7413 31.4248 24.9015 31.2775 25.1401C31.1301 25.3788 31.0549 25.6837 31.0518 26.055C31.0487 26.4323 31.1186 26.7801 31.2614 27.0985C31.4043 27.4108 31.597 27.6728 31.8395 27.8844C32.0822 28.0901 32.3515 28.2305 32.6475 28.3057C32.9436 28.3808 33.2141 28.3775 33.4591 28.2957C33.7099 28.2094 33.909 28.0469 34.0564 27.8083C34.2038 27.5637 34.279 27.2557 34.2821 26.8844ZM36.858 24.2799C36.7071 24.2416 36.5798 24.1553 36.4762 24.0209C36.3726 23.8866 36.3215 23.7416 36.3227 23.5859C36.324 23.4302 36.3773 23.3117 36.4827 23.2304C36.5881 23.1492 36.7162 23.1277 36.8671 23.166C37.0123 23.2029 37.1337 23.2877 37.2315 23.4206C37.3351 23.5549 37.3863 23.7 37.385 23.8557C37.3837 24.0114 37.3304 24.1299 37.225 24.2111C37.1255 24.2939 37.0031 24.3168 36.858 24.2799ZM37.2346 25.1767L37.1942 30.0995L36.4018 29.8983L36.4422 24.9755L37.2346 25.1767ZM39.3914 23.9962L39.3369 30.6437L38.5446 30.4424L38.5991 23.7949L39.3914 23.9962ZM40.4116 28.4321C40.4157 27.9291 40.518 27.5139 40.7185 27.1868C40.919 26.8536 41.1913 26.6257 41.5355 26.5031C41.8855 26.3819 42.2724 26.3752 42.6962 26.4828C43.1141 26.5889 43.4761 26.7739 43.7822 27.0377C44.0884 27.3015 44.3157 27.5933 44.4644 27.9131L44.4717 27.0147L45.2728 27.2182L45.2324 32.1409L44.4313 31.9375L44.4389 31.0212C44.2798 31.2689 44.0427 31.4487 43.7277 31.5608C43.4185 31.6683 43.0579 31.6697 42.6457 31.565C42.222 31.4574 41.8398 31.2523 41.4991 30.9497C41.1584 30.6472 40.8909 30.2762 40.6967 29.8368C40.5026 29.3974 40.4075 28.9292 40.4116 28.4321ZM44.4516 29.4671C44.4546 29.0958 44.3847 28.754 44.2419 28.4417C44.099 28.1293 43.9034 27.8696 43.655 27.6625C43.4124 27.4509 43.1431 27.3074 42.8471 27.2323C42.551 27.1571 42.2805 27.1604 42.0355 27.2422C41.7906 27.324 41.5944 27.4842 41.447 27.7229C41.2996 27.9615 41.2244 28.2665 41.2214 28.6378C41.2183 29.0151 41.2881 29.3629 41.4309 29.6812C41.5738 29.9935 41.7665 30.2555 42.0091 30.4671C42.2517 30.6728 42.521 30.8132 42.8171 30.8884C43.1131 30.9636 43.3836 30.9603 43.6286 30.8784C43.8794 30.7921 44.0785 30.6296 44.2259 30.391C44.3733 30.1464 44.4486 29.8384 44.4516 29.4671ZM47.3966 28.6757C47.5615 28.4236 47.8015 28.2445 48.1164 28.1384C48.4314 28.0324 48.7892 28.0302 49.1897 28.1319C49.6192 28.241 50.0044 28.4439 50.3451 28.7404C50.6859 29.037 50.9534 29.402 51.1476 29.8354C51.3419 30.2628 51.4369 30.7281 51.4328 31.2311C51.4287 31.7282 51.3264 32.1463 51.1259 32.4855C50.9253 32.8246 50.65 33.0577 50.3 33.1849C49.9557 33.3135 49.5717 33.324 49.148 33.2164C48.7358 33.1117 48.3738 32.9268 48.0619 32.6615C47.7558 32.3977 47.5255 32.1022 47.3711 31.7749L47.3637 32.6822L46.5714 32.481L46.6259 25.8335L47.4182 26.0347L47.3966 28.6757ZM50.6231 31.0255C50.6261 30.6542 50.5562 30.3124 50.4133 30C50.2705 29.6877 50.0748 29.428 49.8264 29.2208C49.5838 29.0152 49.3145 28.8748 49.0184 28.7996C48.7282 28.7259 48.4577 28.7322 48.2068 28.8185C47.9619 28.9003 47.7628 29.0628 47.6095 29.3059C47.4621 29.5446 47.387 29.8465 47.384 30.2119C47.3809 30.5832 47.4508 30.928 47.5936 31.2463C47.7423 31.5601 47.9379 31.8228 48.1805 32.0345C48.4289 32.2416 48.6982 32.382 48.9884 32.4557C49.2845 32.5309 49.555 32.5276 49.8 32.4458C50.0508 32.3594 50.2499 32.197 50.3973 31.9583C50.5447 31.7137 50.62 31.4028 50.6231 31.0255ZM53.3023 27.5291L53.2477 34.1766L52.4554 33.9753L52.5099 27.3278L53.3023 27.5291ZM58.9734 32.9752C58.9721 33.1309 58.9621 33.2934 58.9432 33.4626L55.1295 32.4941C55.1546 32.9865 55.3111 33.4073 55.5991 33.7565C55.8929 34.1012 56.2488 34.3266 56.6667 34.4328C57.0092 34.5197 57.2943 34.5111 57.522 34.4069C57.7556 34.2982 57.9199 34.1179 58.015 33.866L58.8683 34.0827C58.7368 34.5234 58.4782 34.8448 58.0926 35.0469C57.7071 35.2431 57.2299 35.2689 56.6611 35.1245C56.2083 35.0095 55.8028 34.8015 55.4446 34.5005C55.0923 34.2009 54.8161 33.8337 54.6161 33.3989C54.4161 32.958 54.3182 32.483 54.3224 31.974C54.3266 31.4649 54.4289 31.0438 54.6294 30.7107C54.8299 30.3775 55.108 30.1541 55.4638 30.0404C55.8254 29.9222 56.2384 29.9221 56.7028 30.04C57.1555 30.155 57.5552 30.3585 57.9018 30.6506C58.2484 30.9427 58.5131 31.292 58.6959 31.6985C58.8846 32.1004 58.9771 32.526 58.9734 32.9752ZM58.1563 32.5966C58.1589 32.2852 58.0943 32.0018 57.9626 31.7463C57.831 31.4848 57.6495 31.2677 57.4183 31.0949C57.1929 30.9176 56.9409 30.7936 56.6623 30.7229C56.2617 30.6211 55.9182 30.6659 55.6316 30.8572C55.3508 31.0499 55.1882 31.3747 55.1437 31.8315L58.1563 32.5966ZM68.0979 32.925C68.4694 33.0193 68.7996 33.1842 69.0885 33.4196C69.3774 33.6491 69.6048 33.9438 69.7705 34.304C69.9363 34.6642 70.0173 35.0718 70.0135 35.5269L69.9897 38.4285L69.2061 38.2295L69.2289 35.4447C69.233 34.9536 69.117 34.5491 68.8812 34.2312C68.6511 33.9087 68.3359 33.6966 67.9353 33.5949C67.5232 33.4902 67.1941 33.5446 66.948 33.7582C66.702 33.9658 66.5769 34.3271 66.5727 34.8421L66.5504 37.555L65.7668 37.356L65.7897 34.5712C65.7937 34.0802 65.6778 33.6756 65.4419 33.3577C65.2119 33.0352 64.8966 32.8231 64.4961 32.7214C64.0839 32.6167 63.7548 32.6712 63.5088 32.8847C63.2628 33.0923 63.1376 33.4536 63.1334 33.9687L63.1112 36.6816L62.3188 36.4803L62.3592 31.5576L63.1516 31.7588L63.1457 32.4685C63.3046 32.2508 63.5152 32.1062 63.7775 32.0348C64.0456 31.9649 64.3393 31.9705 64.6586 32.0515C65.0591 32.1533 65.4125 32.336 65.7186 32.5998C66.0247 32.8636 66.2518 33.1943 66.3997 33.592C66.5361 33.2785 66.7589 33.065 67.0681 32.9515C67.3773 32.838 67.7206 32.8292 68.0979 32.925ZM73.3698 39.3679C72.9228 39.2544 72.5173 39.0464 72.1534 38.7439C71.7952 38.4429 71.5132 38.0743 71.3074 37.6379C71.1074 37.197 71.0095 36.7221 71.0137 36.213C71.0178 35.71 71.1259 35.2934 71.338 34.9631C71.556 34.6284 71.8487 34.4057 72.216 34.2949C72.5834 34.1782 72.9935 34.1773 73.4463 34.2923C73.8991 34.4073 74.3074 34.616 74.6714 34.9185C75.0354 35.215 75.3204 35.5814 75.5262 36.0178C75.7378 36.4556 75.8415 36.9291 75.8374 37.4381C75.8332 37.9471 75.7192 38.3683 75.4954 38.7015C75.2775 39.0303 74.982 39.2523 74.6087 39.3675C74.2355 39.4828 73.8225 39.4829 73.3698 39.3679ZM73.3757 38.6493C73.6601 38.7215 73.9277 38.7205 74.1784 38.6461C74.4291 38.5718 74.6311 38.416 74.7843 38.1789C74.9433 37.9432 75.0244 37.6277 75.0276 37.2325C75.0309 36.8372 74.9581 36.4827 74.8095 36.1688C74.6608 35.855 74.4651 35.6013 74.2224 35.4076C73.9797 35.208 73.7162 35.072 73.4318 34.9998C73.1415 34.9261 72.874 34.9271 72.629 35.003C72.39 35.0743 72.1967 35.2292 72.0494 35.4679C71.902 35.7065 71.8267 36.0234 71.8234 36.4187C71.8201 36.8199 71.887 37.176 72.0241 37.4869C72.1669 37.7992 72.3568 38.0545 72.5936 38.2526C72.8306 38.4448 73.0912 38.5771 73.3757 38.6493ZM79.2248 35.7509C79.8052 35.8983 80.2739 36.2004 80.6308 36.6571C80.9878 37.1078 81.1634 37.6745 81.1578 38.3572L81.134 41.2588L80.3504 41.0598L80.3732 38.275C80.3773 37.7839 80.2613 37.3794 80.0255 37.0614C79.7896 36.7375 79.4657 36.5232 79.0535 36.4185C78.6356 36.3124 78.3007 36.3624 78.0489 36.5685C77.8029 36.776 77.6778 37.1373 77.6735 37.6524L77.6512 40.3743L76.8589 40.173L76.8993 35.2503L77.6916 35.4515L77.6859 36.1522C77.8446 35.9405 78.0581 35.7996 78.3263 35.7297C78.6002 35.6613 78.8997 35.6683 79.2248 35.7509ZM86.8036 40.0431C86.8023 40.1988 86.7922 40.3613 86.7734 40.5306L82.9597 39.562C82.9848 40.0545 83.1413 40.4753 83.4292 40.8245C83.7231 41.1692 84.079 41.3946 84.4969 41.5007C84.8394 41.5877 85.1245 41.5791 85.3522 41.4749C85.5857 41.3662 85.7501 41.1859 85.8452 40.934L86.6985 41.1507C86.5669 41.5914 86.3083 41.9128 85.9228 42.1149C85.5373 42.3111 85.0601 42.3369 84.4912 42.1924C84.0385 42.0774 83.633 41.8694 83.2748 41.5684C82.9224 41.2689 82.6463 40.9017 82.4462 40.4668C82.2463 40.026 82.1484 39.551 82.1525 39.042C82.1567 38.5329 82.2591 38.1118 82.4596 37.7787C82.6601 37.4455 82.9382 37.2221 83.294 37.1084C83.6556 36.9902 84.0686 36.99 84.5329 37.108C84.9857 37.223 85.3854 37.4265 85.732 37.7186C86.0786 38.0106 86.3433 38.3599 86.5261 38.7664C86.7148 39.1684 86.8073 39.594 86.8036 40.0431ZM85.9865 39.6646C85.9891 39.3532 85.9245 39.0697 85.7928 38.8142C85.6612 38.5527 85.4797 38.3356 85.2485 38.1629C85.0231 37.9856 84.771 37.8616 84.4924 37.7908C84.0919 37.6891 83.7483 37.7339 83.4618 37.9252C83.181 38.1179 83.0183 38.4427 82.9739 38.8995L85.9865 39.6646ZM91.9778 39.0797L89.0451 45.5904L88.2266 45.3826L89.1864 43.2498L87.3021 37.8923L88.1815 38.1156L89.6464 42.4845L91.1593 38.8719L91.9778 39.0797Z" fill="#8E8E8E"/>
<path d="M34.0318 67.8534C34.024 68.8087 33.785 69.6653 33.3149 70.4234C32.8449 71.1615 32.1543 71.704 31.243 72.0509C30.3509 72.4027 29.2777 72.4592 28.0233 72.2203L28.0034 74.6383L26.441 74.2415L26.4609 71.8235C24.7069 71.2186 23.2842 70.2789 22.1929 69.0047C21.1018 67.7105 20.5529 66.2848 20.5464 64.7277L23.3529 65.4405C23.4232 66.2959 23.7162 67.0982 24.232 67.8474C24.767 68.6015 25.5161 69.1806 26.4792 69.5847L26.5405 62.122C25.2509 61.4555 24.2121 60.8427 23.4242 60.2836C22.6363 59.7245 21.9658 58.9959 21.4126 58.0976C20.8594 57.1993 20.588 56.1133 20.5985 54.8397C20.6117 53.2277 21.1627 52.0316 22.2516 51.2512C23.3597 50.4756 24.8208 50.2584 26.635 50.5995L26.6553 48.1219L28.2177 48.5187L28.1974 50.9963C29.8358 51.552 31.1526 52.4349 32.1478 53.6448C33.1432 54.8349 33.7118 56.2057 33.8537 57.7574L31.0471 57.0446C30.9564 56.3236 30.6626 55.6208 30.1656 54.9362C29.6689 54.2317 29.0065 53.6846 28.1785 53.2948L28.1188 60.5785C29.3891 61.2401 30.4182 61.8505 31.2061 62.4095C32.0134 62.9536 32.6841 63.6723 33.218 64.5657C33.7711 65.464 34.0424 66.5599 34.0318 67.8534ZM23.2905 55.3738C23.2825 56.3489 23.5561 57.1662 24.1112 57.8257C24.6664 58.4852 25.4826 59.1213 26.56 59.7339L26.6166 52.8383C25.6128 52.6831 24.8095 52.8181 24.2068 53.2434C23.6043 53.6487 23.2989 54.3589 23.2905 55.3738ZM28.0414 70.0114C29.084 70.1565 29.8973 69.9742 30.4814 69.4644C31.0847 68.9596 31.3901 68.2494 31.3976 67.334C31.4056 66.3589 31.1224 65.5391 30.548 64.8747C29.9737 64.1905 29.1575 63.5544 28.0992 62.9666L28.0414 70.0114ZM45.7056 57.3872L45.726 54.9096L51.1655 56.291L50.9884 77.8733L48.3265 77.1972L48.4832 58.0926L45.7056 57.3872ZM56.7827 79.5243C56.2812 79.3969 55.8583 79.1101 55.514 78.6637C55.1697 78.2173 54.9997 77.7354 55.004 77.218C55.0082 76.7005 55.1854 76.3068 55.5356 76.0368C55.8857 75.7667 56.3115 75.6954 56.813 75.8228C57.2953 75.9453 57.6989 76.2272 58.0238 76.6687C58.3681 77.1151 58.5381 77.597 58.5339 78.1144C58.5296 78.6318 58.3524 79.0256 58.0023 79.2956C57.6714 79.5705 57.2649 79.6468 56.7827 79.5243ZM61.2856 78.3048C63.7519 76.897 65.6848 75.7228 67.0842 74.7819C68.4838 73.8212 69.662 72.7544 70.6187 71.5815C71.5949 70.3936 72.0886 69.113 72.0999 67.7399C72.1105 66.4464 71.8102 65.353 71.199 64.46C70.6073 63.5519 69.6363 62.9264 68.286 62.5835C66.9744 62.2503 65.9486 62.4186 65.2086 63.0881C64.488 63.7427 64.093 64.7691 64.0236 66.1674L61.4774 65.5207C61.5729 63.3115 62.2428 61.7566 63.4873 60.8562C64.7317 59.9558 66.328 59.753 68.2762 60.2477C70.263 60.7523 71.8304 61.7187 72.9784 63.147C74.1457 64.5802 74.7212 66.2918 74.7049 68.2818C74.6913 69.9336 74.1959 71.4231 73.2186 72.7503C72.2607 74.0625 71.1692 75.1613 69.9442 76.0467C68.7194 76.9122 67.1554 77.891 65.2521 78.9831L75.2052 81.5109L75.1866 83.7795L61.2696 80.2451L61.2856 78.3048ZM78.3029 68.6273C78.453 66.8307 79.1495 65.5718 80.3925 64.8504C81.6355 64.1291 83.2407 64.0183 85.2082 64.518C86.5198 64.8511 87.6462 65.3864 88.5873 66.124C89.5478 66.8466 90.2657 67.687 90.7411 68.6453C91.2358 69.6085 91.4788 70.6174 91.4701 71.6722C91.46 72.906 91.1041 73.8825 90.4023 74.6017C89.7198 75.3258 88.8278 75.6775 87.7262 75.657L87.725 75.8063C88.9762 76.4431 89.9644 77.3223 90.6897 78.4437C91.415 79.5652 91.7715 80.8822 91.7591 82.3946C91.7498 83.529 91.4906 84.4902 90.9816 85.2782C90.4727 86.0464 89.7147 86.5618 88.7074 86.8245C87.7001 87.0872 86.4924 87.0397 85.0843 86.6821C83.0397 86.1628 81.3661 85.1894 80.0634 83.7617C78.7609 82.3142 78.0408 80.5559 77.9031 78.4868L80.4493 79.1334C80.5745 80.3618 81.0391 81.4569 81.843 82.4189C82.647 83.3809 83.724 84.0333 85.0743 84.3762C86.4245 84.7191 87.4497 84.6206 88.15 84.0805C88.8698 83.5254 89.2344 82.6708 89.2438 81.5165C89.2561 80.024 88.7827 78.8269 87.8236 77.9252C86.8645 77.0236 85.4109 76.3253 83.4627 75.8306L82.7973 75.6616L82.8159 73.3929L83.5103 73.5692C85.285 74 86.628 74.042 87.5394 73.6951C88.4508 73.3283 88.9116 72.528 88.9218 71.2942C88.9304 70.2395 88.5998 69.3079 87.9299 68.4997C87.2793 67.6963 86.3368 67.1378 85.1023 66.8243C83.9064 66.5206 82.9393 66.5941 82.2011 67.0447C81.4629 67.4954 81.0219 68.2409 80.878 69.2813L78.3029 68.6273ZM94.9659 86.8585C97.4322 85.4507 99.3651 84.2765 100.765 83.3356C102.164 82.3749 103.342 81.3081 104.299 80.1352C105.275 78.9473 105.769 77.6668 105.78 76.2936C105.791 75.0001 105.491 73.9068 104.879 73.0137C104.288 72.1056 103.317 71.4801 101.966 71.1372C100.655 70.8041 99.6289 70.9723 98.8889 71.6419C98.1684 72.2964 97.7733 73.3228 97.7039 74.7211L95.1577 74.0745C95.2532 71.8652 95.9231 70.3103 97.1676 69.4099C98.412 68.5095 100.008 68.3067 101.957 68.8014C103.943 69.306 105.511 70.2724 106.659 71.7007C107.826 73.1339 108.402 74.8455 108.385 76.8355C108.372 78.4873 107.876 79.9768 106.899 81.304C105.941 82.6162 104.85 83.715 103.625 84.6004C102.4 85.4659 100.836 86.4447 98.9325 87.5368L108.886 90.0646L108.867 92.3332L94.95 88.7988L94.9659 86.8585Z" fill="#FCFCFC"/>
<g clip-path="url(#clip1_1390_347)">
<path d="M141.818 89.449C141.813 90.0044 141.595 90.4828 141.211 90.7788C140.827 91.0749 140.309 91.1644 139.771 91.0277C139.233 90.891 138.718 90.5392 138.341 90.0498C137.963 89.5604 137.754 88.9734 137.758 88.418C137.763 87.8625 137.981 87.3842 138.365 87.0881C138.749 86.792 139.267 86.7025 139.805 86.8392C140.344 86.976 140.858 87.3277 141.236 87.8172C141.613 88.3066 141.822 88.8936 141.818 89.449Z" fill="#808080"/>
<path d="M133.292 87.2841C133.292 87.2841 135.766 83.2954 139.826 84.3264C143.885 85.3575 146.283 90.5834 146.283 90.5834C146.283 90.5834 143.81 94.5721 139.75 93.541C135.69 92.51 133.292 87.2841 133.292 87.2841ZM139.764 91.8656C140.517 92.057 141.243 91.9317 141.78 91.5172C142.318 91.1027 142.623 90.433 142.63 89.6554C142.636 88.8778 142.343 88.0561 141.814 87.3709C141.286 86.6857 140.566 86.1932 139.812 86.0018C139.058 85.8104 138.333 85.9357 137.795 86.3502C137.258 86.7647 136.952 87.4344 136.946 88.212C136.94 88.9896 137.233 89.8114 137.761 90.4966C138.29 91.1818 139.01 91.6742 139.764 91.8656Z" fill="#808080"/>
</g>
<g clip-path="url(#clip2_1390_347)">
<rect width="68.8453" height="21.7127" rx="3.70705" transform="matrix(0.969231 0.246153 -0.00820296 0.999966 172.178 56)" fill="#4BFFB3" fill-opacity="0.26"/>
<path d="M195.795 68.3534L195.744 74.5698L194.952 74.3685L194.99 69.7332L192.949 73.8599L192.392 73.7184L190.419 68.5633L190.381 73.2076L189.588 73.0064L189.639 66.79L190.493 67.0067L192.68 72.7112L194.951 68.1389L195.795 68.3534ZM201.238 71.032L198.305 77.5427L197.487 77.3348L198.447 75.2021L196.562 69.8445L197.442 70.0679L198.907 74.4367L200.42 70.8241L201.238 71.032ZM205.159 70.6866L205.108 76.9478L204.316 76.7466L204.367 70.4853L205.159 70.6866ZM208.824 72.8686C209.405 73.016 209.873 73.3181 210.23 73.7748C210.587 74.2255 210.763 74.7922 210.757 75.475L210.733 78.3765L209.95 78.1775L209.973 75.3927C209.977 74.9016 209.861 74.4971 209.625 74.1792C209.389 73.8552 209.065 73.6409 208.653 73.5362C208.235 73.4301 207.9 73.4801 207.648 73.6862C207.402 73.8938 207.277 74.2551 207.273 74.7701L207.251 77.492L206.458 77.2908L206.499 72.368L207.291 72.5692L207.285 73.2699C207.444 73.0582 207.658 72.9174 207.926 72.8474C208.2 72.779 208.499 72.786 208.824 72.8686ZM214.004 74.9493L213.003 74.695L212.968 78.944L212.176 78.7428L212.211 74.4938L211.592 74.3368L211.598 73.663L212.216 73.82L212.219 73.4697C212.224 72.9187 212.363 72.5521 212.638 72.3699C212.919 72.1831 213.364 72.1672 213.973 72.322L213.968 73.0047C213.62 72.9162 213.372 72.9254 213.226 73.0323C213.086 73.1347 213.014 73.3475 213.011 73.6709L213.008 74.0213L214.01 74.2756L214.004 74.9493ZM216.974 80.0423C216.527 79.9288 216.121 79.7208 215.757 79.4183C215.399 79.1173 215.117 78.7486 214.911 78.3123C214.711 77.8714 214.613 77.3965 214.617 76.8874C214.622 76.3844 214.73 75.9677 214.942 75.6375C215.16 75.3028 215.452 75.0801 215.82 74.9693C216.187 74.8526 216.597 74.8517 217.05 74.9667C217.503 75.0817 217.911 75.2904 218.275 75.5929C218.639 75.8894 218.924 76.2558 219.13 76.6922C219.342 77.13 219.445 77.6034 219.441 78.1125C219.437 78.6215 219.323 79.0427 219.099 79.3759C218.881 79.7046 218.586 79.9266 218.212 80.0419C217.839 80.1572 217.426 80.1573 216.974 80.0423ZM216.979 79.3237C217.264 79.3959 217.531 79.3948 217.782 79.3205C218.033 79.2461 218.235 79.0904 218.388 78.8532C218.547 78.6175 218.628 78.3021 218.631 77.9068C218.635 77.5116 218.562 77.157 218.413 76.8432C218.265 76.5294 218.069 76.2757 217.826 76.082C217.584 75.8823 217.32 75.7464 217.036 75.6742C216.745 75.6004 216.478 75.6015 216.233 75.6773C215.994 75.7486 215.8 75.9036 215.653 76.1422C215.506 76.3809 215.43 76.6978 215.427 77.0931C215.424 77.4943 215.491 77.8504 215.628 78.1612C215.771 78.4736 215.961 78.7288 216.197 78.927C216.434 79.1192 216.695 79.2514 216.979 79.3237Z" fill="#4BFFB3"/>
</g>
</g>
</g>
<defs>
<filter id="filter0_d_1390_347" x="0.504601" y="-1.4954" width="266.846" height="188.355" filterUnits="userSpaceOnUse" color-interpolation-filters="sRGB">
<feFlood flood-opacity="0" result="BackgroundImageFix"/>
<feColorMatrix in="SourceAlpha" type="matrix" values="0 0 0 0 0 0 0 0 0 0 0 0 0 0 0 0 0 0 127 0" result="hardAlpha"/>
<feOffset dx="7.4862" dy="7.4862"/>
<feGaussianBlur stdDeviation="4.9908"/>
<feComposite in2="hardAlpha" operator="out"/>
<feColorMatrix type="matrix" values="0 0 0 0 0 0 0 0 0 0 0 0 0 0 0 0 0 0 0.44 0"/>
<feBlend mode="normal" in2="BackgroundImageFix" result="effect1_dropShadow_1390_347"/>
<feBlend mode="normal" in="SourceGraphic" in2="effect1_dropShadow_1390_347" result="shape"/>
</filter>
<clipPath id="clip0_1390_347">
<rect width="253.823" height="105.916" rx="9.00285" transform="matrix(0.969231 0.246153 -0.00820296 0.999966 3.86914 1)" fill="white"/>
</clipPath>
<clipPath id="clip1_1390_347">
<rect width="13.4035" height="13.4035" fill="white" transform="matrix(0.969231 0.246153 -0.00820296 0.999966 133.348 80.5811)"/>
</clipPath>
<clipPath id="clip2_1390_347">
<rect width="68.8453" height="21.7127" rx="3.70705" transform="matrix(0.969231 0.246153 -0.00820296 0.999966 172.178 56)" fill="white"/>
</clipPath>
</defs>
</svg>
