<svg width="80" height="80" viewBox="0 0 80 80" fill="none" xmlns="http://www.w3.org/2000/svg">
<rect width="80" height="80" rx="40" fill="#2E2E2E"/>
<g clip-path="url(#clip0_1202_1017)">
<path d="M58 30.56V26C58 23.8 56.2 22 54 22H26C24.9391 22 23.9217 22.4214 23.1716 23.1716C22.4214 23.9217 22 24.9391 22 26V54C22 55.0609 22.4214 56.0783 23.1716 56.8284C23.9217 57.5786 24.9391 58 26 58H54C56.2 58 58 56.2 58 54V49.44C58.6046 49.091 59.1072 48.5898 59.4581 47.9863C59.809 47.3829 59.9958 46.6981 60 46V34C59.9958 33.3019 59.809 32.6171 59.4581 32.0137C59.1072 31.4102 58.6046 30.909 58 30.56ZM56 34V46H42V34H56ZM26 54V26H54V30H42C39.8 30 38 31.8 38 34V46C38 48.2 39.8 50 42 50H54V54H26Z" fill="#4BFFB3"/>
<path d="M48 43C49.6569 43 51 41.6569 51 40C51 38.3431 49.6569 37 48 37C46.3431 37 45 38.3431 45 40C45 41.6569 46.3431 43 48 43Z" fill="#4BFFB3"/>
</g>
<defs>
<clipPath id="clip0_1202_1017">
<rect width="48" height="48" fill="white" transform="translate(16 16)"/>
</clipPath>
</defs>
</svg>
